<?xml version="1.0" encoding="UTF-8" standalone="no"?><!DOCTYPE svg PUBLIC "-//W3C//DTD SVG 1.1//EN" "http://www.w3.org/Graphics/SVG/1.1/DTD/svg11.dtd"><svg width="24px" height="32px" viewBox="0 0 30 40" version="1.1" xmlns="http://www.w3.org/2000/svg" xmlns:xlink="http://www.w3.org/1999/xlink" xml:space="preserve" xmlns:serif="http://www.serif.com/" style="fill-rule:evenodd;clip-rule:evenodd;stroke-miterlimit:1;"><path d="M15,0.381c-8.126,0 -14.714,6.588 -14.714,14.714c0,5.933 2.067,7.59 13.202,23.732c0.73,1.055 2.293,1.056 3.024,0c11.135,-16.142 13.202,-17.799 13.202,-23.732c0,-8.126 -6.588,-14.714 -14.714,-14.714Zm0,36.32c-10.675,-15.437 -12.262,-16.663 -12.262,-21.606c0,-3.275 1.276,-6.354 3.592,-8.67c2.316,-2.316 5.395,-3.591 8.67,-3.591c3.275,0 6.354,1.275 8.67,3.591c2.316,2.316 3.592,5.395 3.592,8.67c0,4.943 -1.586,6.167 -12.262,21.606Z" style="fill:#6e6314;fill-rule:nonzero;stroke:#331d07;stroke-width:0.45px;"/><g><path id="path4170" d="M19.586,25.344c-0.394,-0.06 -0.912,-0.181 -1.647,-0.386c-1.193,-0.333 -1.782,-0.44 -2.78,-0.507c-0.886,-0.058 -1.47,-0.024 -3.46,0.204c-2.244,0.258 -3.658,0.224 -4.956,-0.119c-1.61,-0.425 -2.76,-1.362 -3.083,-2.512c-0.087,-0.31 -0.122,-1.039 -0.065,-1.349c0.052,-0.286 0.155,-0.608 0.272,-0.85c0.363,-0.753 1.206,-1.48 2.033,-1.753c0.126,-0.041 0.228,-0.08 0.226,-0.087c-0.001,-0.006 -0.071,-0.155 -0.156,-0.331c-0.402,-0.841 -0.455,-1.896 -0.139,-2.763c0.298,-0.817 0.943,-1.538 1.786,-1.995c0.152,-0.082 0.366,-0.182 0.475,-0.223l0.199,-0.073l-0.141,-0.292c-0.404,-0.832 -0.28,-1.885 0.331,-2.833c0.426,-0.66 1.203,-1.33 1.983,-1.711c0.234,-0.114 0.318,-0.171 0.306,-0.208c-0.009,-0.027 -0.057,-0.164 -0.106,-0.303c-0.082,-0.226 -0.091,-0.295 -0.09,-0.673c0.001,-0.37 0.012,-0.453 0.091,-0.69c0.198,-0.589 0.465,-0.977 1.218,-1.769c0.323,-0.34 0.539,-0.595 0.553,-0.651c0.06,-0.245 -0.07,-0.928 -0.283,-1.489c-0.131,-0.345 -0.133,-0.354 -0.073,-0.422c0.056,-0.066 0.083,-0.069 0.436,-0.048c0.79,0.045 1.667,0.216 2.27,0.44c1.421,0.53 2.862,1.798 3.751,3.303c0.512,0.867 0.964,2.027 1.073,2.754c0.05,0.333 0.044,0.322 0.182,0.323c0.304,0.001 0.781,0.179 1.142,0.426c1.184,0.81 1.698,2.489 1.111,3.629l-0.11,0.213l0.183,0.022c0.933,0.115 1.77,0.739 2.219,1.657c0.482,0.985 0.361,2.314 -0.315,3.443c-0.137,0.23 -0.133,0.268 0.029,0.269c0.175,0.001 0.612,0.14 0.895,0.285c0.654,0.333 1.108,0.878 1.362,1.634c0.104,0.312 0.107,0.334 0.106,0.875c-0.001,0.518 -0.007,0.575 -0.093,0.842c-0.309,0.957 -0.948,1.734 -2.045,2.485c-0.411,0.282 -1.248,0.73 -1.541,0.825c-0.102,0.033 -0.241,0.089 -0.309,0.125c-0.068,0.036 -0.154,0.065 -0.191,0.065c-0.037,0 -0.098,0.022 -0.136,0.05c-0.039,0.028 -0.214,0.064 -0.407,0.083c-0.187,0.019 -0.42,0.057 -0.519,0.085c-0.228,0.064 -1.161,0.064 -1.587,0l0,0Z" style="fill:#331d07;fill-rule:nonzero;"/><path id="path4156" d="M15.75,21.79c0.664,-0.12 1.336,-0.47 2.065,-1.079c0.302,-0.252 0.993,-0.961 1.191,-1.223l0.111,-0.147l-0.128,0.016c-0.071,0.009 -0.297,0.048 -0.504,0.086c-1.927,0.358 -4.641,0.353 -6.799,-0.012c-0.273,-0.046 -0.501,-0.078 -0.508,-0.071c-0.033,0.034 0.35,0.567 0.602,0.837c0.847,0.91 1.675,1.418 2.59,1.59c0.335,0.062 1.038,0.064 1.38,0.003l0,0Zm3.416,-3.395c1.261,-0.321 2.156,-1.795 2.073,-3.412c-0.036,-0.686 -0.166,-1.214 -0.436,-1.767c-0.196,-0.405 -0.377,-0.658 -0.675,-0.95c-0.43,-0.421 -0.816,-0.597 -1.312,-0.597c-0.464,0 -0.82,0.154 -1.32,0.571c-0.387,0.321 -0.85,1.057 -0.999,1.582c-0.088,0.316 -0.18,0.996 -0.18,1.341c0.001,1.099 0.422,2.198 1.062,2.77c0.533,0.478 1.125,0.631 1.787,0.462Zm-7.383,-0.135c1.044,-0.266 1.864,-1.341 2.05,-2.688c0.136,-0.982 -0.149,-2.201 -0.7,-2.996c-0.181,-0.262 -0.588,-0.659 -0.808,-0.789c-0.428,-0.253 -0.965,-0.328 -1.366,-0.191c-0.606,0.208 -1.234,0.784 -1.541,1.414c-0.055,0.113 -0.126,0.244 -0.157,0.29c-0.135,0.201 -0.282,0.896 -0.315,1.49c-0.066,1.185 0.353,2.386 1.05,3.009c0.533,0.477 1.125,0.63 1.787,0.461Z" style="fill:#e6e6e6;fill-rule:nonzero;"/><path id="path4164" d="M14.484,22.04c-0.779,-0.126 -1.436,-0.434 -2.121,-0.994c-0.597,-0.488 -1.091,-1.048 -1.297,-1.469c-0.121,-0.246 -0.124,-0.354 -0.011,-0.383c0.046,-0.012 0.454,0.025 0.907,0.082c1.465,0.185 1.555,0.191 3.109,0.191c1.607,0 2.056,-0.03 3.332,-0.222c1.072,-0.161 1.098,-0.15 0.796,0.327c-0.203,0.323 -0.958,1.108 -1.398,1.456c-0.594,0.47 -1.175,0.778 -1.761,0.935c-0.258,0.069 -0.412,0.087 -0.838,0.097c-0.288,0.006 -0.611,-0.003 -0.718,-0.02Zm-4.981,-9.747c0.258,-0.346 0.523,-0.564 0.922,-0.761c0.486,-0.241 0.677,-0.294 1.039,-0.292c0.442,0.003 0.877,0.161 1.231,0.449c0.066,0.053 0.152,0.096 0.191,0.096c0.039,0 0.419,-0.12 0.844,-0.266c2.304,-0.793 4.107,-1.743 5.455,-2.873c0.181,-0.152 0.23,-0.21 0.204,-0.243c-0.02,-0.023 -0.092,-0.276 -0.162,-0.56c-0.218,-0.885 -0.491,-1.579 -0.907,-2.303c-0.643,-1.119 -1.453,-1.995 -2.482,-2.688c-0.648,-0.435 -1.337,-0.718 -2.14,-0.878c-0.415,-0.082 -1.181,-0.215 -1.192,-0.206c-0.003,0.002 0.052,0.126 0.122,0.274c0.157,0.334 0.254,0.714 0.281,1.099c0.029,0.425 -0.024,0.52 -0.651,1.173c-0.697,0.725 -0.957,1.094 -1.115,1.581c-0.107,0.332 -0.134,0.604 -0.086,0.875c0.041,0.23 0.145,0.515 0.208,0.567c0.023,0.019 0.133,0.013 0.282,-0.014c0.244,-0.045 0.442,-0.035 0.477,0.024c0.01,0.017 -0.111,0.092 -0.27,0.167c-0.683,0.323 -1.092,0.542 -1.383,0.738c-1.23,0.834 -1.894,1.86 -1.894,2.926c0,0.501 0.104,0.83 0.366,1.154c0.128,0.157 0.133,0.16 0.321,0.16l0.191,0l0.148,-0.199Zm4.974,4.121c0.284,-0.102 0.756,-0.28 1.048,-0.396l0.531,-0.212l0.013,-0.639c0.01,-0.467 0.031,-0.725 0.079,-0.962c0.188,-0.926 0.564,-1.674 1.089,-2.165c0.225,-0.21 0.792,-0.517 1.133,-0.612c0.274,-0.077 0.724,-0.067 1.002,0.021c0.644,0.205 1.146,0.665 1.633,1.496c0.029,0.049 0.055,0.039 0.221,-0.089c0.34,-0.262 0.631,-0.801 0.711,-1.316c0.159,-1.017 -0.443,-2.165 -1.406,-2.681c-0.248,-0.133 -0.676,-0.271 -0.84,-0.271c-0.048,0 -0.162,0.074 -0.297,0.194c-1.182,1.048 -2.813,1.954 -4.952,2.751c-0.361,0.134 -0.815,0.294 -1.008,0.355c-0.193,0.06 -0.351,0.119 -0.351,0.13c0.001,0.011 0.087,0.131 0.193,0.267c0.218,0.28 0.511,0.842 0.634,1.217c0.168,0.508 0.229,0.913 0.231,1.514c0.003,0.59 -0.04,0.896 -0.189,1.355c-0.053,0.164 -0.062,0.227 -0.033,0.227c0.023,0 0.274,-0.083 0.558,-0.184Zm-7.095,1.612c0.442,-0.033 1.919,-0.248 2.067,-0.301c0.027,-0.009 -0.009,-0.089 -0.109,-0.239c-0.281,-0.424 -0.468,-0.888 -0.591,-1.468c-0.083,-0.39 -0.084,-1.43 -0.001,-1.86c0.08,-0.413 0.203,-0.826 0.336,-1.124c0.061,-0.137 0.111,-0.262 0.111,-0.277c0,-0.055 -0.198,-0.029 -0.287,0.037c-0.049,0.036 -0.256,0.126 -0.46,0.199c-0.61,0.22 -1.063,0.521 -1.511,1.004c-0.52,0.562 -0.78,1.234 -0.78,2.017c0,0.523 0.247,1.655 0.428,1.962l0.063,0.106l0.253,-0.019c0.139,-0.011 0.355,-0.027 0.481,-0.037l0,0Zm3.61,6.18c0.595,-0.065 2.065,-0.463 3.414,-0.925c1.91,-0.654 3.626,-1.473 5.5,-2.625c1.403,-0.862 3.215,-2.234 3.472,-2.629c0.153,-0.234 0.603,-1.198 0.691,-1.479c0.126,-0.403 0.162,-0.636 0.16,-1.027c-0.005,-0.901 -0.423,-1.686 -1.164,-2.184c-0.382,-0.257 -0.629,-0.342 -1.356,-0.47l-0.177,-0.031l-0.201,0.185l-0.2,0.184l0.105,0.275c0.147,0.383 0.27,0.982 0.296,1.437c0.077,1.394 -0.499,2.715 -1.474,3.381c-0.471,0.322 -0.874,0.453 -1.39,0.454c-0.336,0.001 -0.597,-0.055 -0.872,-0.184c-0.541,-0.255 -1.027,-0.767 -1.341,-1.414c-0.108,-0.225 -0.282,-0.763 -0.317,-0.987c-0.015,-0.09 -0.038,-0.139 -0.061,-0.129c-0.416,0.176 -1.127,0.448 -1.655,0.63c-0.516,0.179 -0.68,0.25 -0.715,0.308c-0.364,0.605 -0.632,0.914 -1.033,1.187c-0.47,0.322 -0.873,0.454 -1.389,0.454c-0.172,0.001 -0.4,-0.022 -0.507,-0.05c-0.275,-0.071 -0.684,-0.291 -0.908,-0.488c-0.104,-0.092 -0.205,-0.168 -0.224,-0.168c-0.018,0 -0.249,0.037 -0.512,0.083c-0.792,0.137 -1.458,0.22 -2.095,0.259c-0.582,0.035 -0.616,0.041 -0.932,0.167c-0.778,0.309 -1.418,0.864 -1.747,1.515c-0.191,0.379 -0.266,0.704 -0.268,1.174c-0.003,0.464 0.05,0.709 0.241,1.109c0.109,0.23 0.193,0.346 0.433,0.594c0.745,0.774 1.832,1.24 3.286,1.409c0.493,0.058 2.359,0.048 2.94,-0.015Zm10.307,0.6c0.612,-0.091 1.237,-0.303 1.927,-0.651c1.926,-0.971 2.972,-2.346 2.824,-3.709c-0.061,-0.56 -0.279,-1.014 -0.684,-1.428c-0.398,-0.408 -0.864,-0.61 -1.615,-0.703l-0.321,-0.039l-0.184,0.182c-0.424,0.423 -1.105,0.969 -1.931,1.547c-2.412,1.69 -5.069,2.986 -7.808,3.81l-0.506,0.153l0.294,-0.025c0.162,-0.013 0.757,-0.024 1.323,-0.023c1.422,0.001 1.972,0.082 3.605,0.535c0.866,0.24 1.381,0.349 1.833,0.391c0.331,0.03 0.897,0.012 1.243,-0.04Z" style="fill:#663d1a;fill-rule:nonzero;"/><path id="path4154" d="M10.967,17.376c-0.183,-0.069 -0.453,-0.328 -0.593,-0.568c-0.259,-0.443 -0.379,-0.98 -0.375,-1.683c0.005,-0.913 0.23,-1.724 0.578,-2.082c0.195,-0.201 0.352,-0.27 0.651,-0.285c0.227,-0.012 0.274,-0.003 0.457,0.087c0.5,0.243 0.857,0.789 0.992,1.517c0.066,0.353 0.059,0.999 -0.015,1.369c-0.154,0.768 -0.527,1.378 -0.981,1.606c-0.19,0.095 -0.518,0.113 -0.714,0.039Zm7.383,0.135c-0.183,-0.069 -0.453,-0.328 -0.593,-0.568c-0.257,-0.439 -0.378,-0.98 -0.375,-1.667c0.005,-0.924 0.23,-1.74 0.578,-2.098c0.195,-0.201 0.352,-0.27 0.651,-0.285c0.227,-0.012 0.274,-0.003 0.458,0.086c0.499,0.243 0.856,0.79 0.992,1.518c0.065,0.353 0.058,0.999 -0.016,1.369c-0.154,0.767 -0.527,1.377 -0.981,1.605c-0.19,0.095 -0.518,0.113 -0.714,0.04Z" style="fill-rule:nonzero;"/></g></svg>